External Loads File
version=1
nRows=30
nColumns=13
Range=5.000000e-03-10 seconds
endheader
time 	forceRightX 	forceRightY 	forceRightZ 	pointRightX 	pointRightY 	pointRightZ 	forceLeftX 	forceLeftY 	forceLeftZ 	pointLeftX 	pointLeftY 	pointLeftZ 		
2.505000 147.071387 -111.891697 -0.000000 0.117400 0.284302 -0.118000 -282.214867 776.413497 -0.000000 0.388735 0.380195 -0.367768
2.510000 145.591655 -109.759224 -0.000000 0.115869 0.289360 -0.118064 -274.962895 793.576902 -0.000000 0.390583 0.374940 -0.367999
2.515000 143.588803 -107.958712 -0.000000 0.114451 0.294433 -0.118195 -267.747229 809.591443 -0.000000 0.392371 0.369699 -0.368215
2.520000 140.984732 -106.814099 -0.000000 0.113311 0.299732 -0.118255 -259.921295 824.836491 -0.000000 0.394123 0.364340 -0.368476
2.525000 137.911144 -106.312061 -0.000000 0.112264 0.305009 -0.118333 -252.458014 839.113546 -0.000000 0.395884 0.358996 -0.368484
2.530000 134.345456 -106.538974 -0.000000 0.111462 0.310394 -0.118428 -245.167178 852.557543 -0.000000 0.397233 0.353618 -0.368557
2.535000 130.301672 -107.424735 -0.000000 0.110768 0.315742 -0.118433 -238.104119 865.160703 -0.000000 0.398694 0.348225 -0.368780
2.540000 125.736973 -108.878876 -0.000000 0.110373 0.321200 -0.118523 -230.951136 876.937446 -0.000000 0.399948 0.342808 -0.368847
2.545000 120.715098 -110.625297 -0.000000 0.110088 0.326604 -0.118613 -224.410386 887.572949 -0.000000 0.401178 0.337486 -0.368843
2.550000 115.122802 -112.589151 -0.000000 0.110024 0.332072 -0.118649 -217.783549 897.143664 -0.000000 0.402141 0.332089 -0.368928
2.555000 109.039495 -114.566408 -0.000000 0.110217 0.337563 -0.118578 -211.651989 905.483634 -0.000000 0.403185 0.326731 -0.368761
2.560000 102.573978 -116.474245 -0.000000 0.110772 0.342994 -0.118558 -206.339952 912.582186 -0.000000 0.403885 0.321407 -0.368800
2.565000 95.763212 -118.420454 -0.000000 0.111402 0.348502 -0.118612 -201.184026 918.701343 -0.000000 0.404800 0.315968 -0.368519
2.570000 88.829129 -120.424033 -0.000000 0.112243 0.354063 -0.118512 -196.857049 923.829547 -0.000000 0.405385 0.310645 -0.368451
2.575000 81.857858 -122.617794 -0.000000 0.113350 0.359514 -0.118494 -193.213386 928.145864 -0.000000 0.405719 0.305267 -0.368525
2.580000 74.808891 -125.139805 -0.000000 0.114498 0.365106 -0.118515 -189.575200 931.915124 -0.000000 0.406086 0.299823 -0.368446
2.585000 67.788693 -127.931464 -0.000000 0.115892 0.370592 -0.118495 -186.705028 935.084032 -0.000000 0.406303 0.294434 -0.368432
2.590000 60.669366 -130.986130 -0.000000 0.117495 0.376111 -0.118504 -183.729208 937.933465 -0.000000 0.406243 0.289044 -0.368887
2.595000 53.383927 -134.196026 -0.000000 0.119178 0.381875 -0.118461 -180.163100 940.658053 -0.000000 0.406353 0.283587 -0.367943
2.600000 46.209271 -137.312330 -0.000000 0.121097 0.387150 -0.118481 -177.685417 943.002501 -0.000000 0.406036 0.278176 -0.367924
2.605000 38.972073 -140.276512 -0.000000 0.123206 0.392507 -0.118503 -174.579317 945.310690 -0.000000 0.405446 0.272809 -0.367932
2.610000 31.742996 -142.932244 -0.000000 0.125459 0.397970 -0.118548 -170.748812 947.594579 -0.000000 0.404776 0.267442 -0.367839
2.615000 24.713835 -145.122571 -0.000000 0.127760 0.403376 -0.118654 -166.871332 949.746806 -0.000000 0.403850 0.262237 -0.367836
2.620000 17.869392 -146.770246 -0.000000 0.129737 0.408868 -0.119222 -162.356915 951.892739 -0.000000 0.402740 0.256949 -0.367729
2.625000 11.204785 -147.824769 -0.000000 0.132405 0.414210 -0.119302 -156.904993 954.068522 -0.000000 0.401450 0.251801 -0.367729
2.630000 4.727305 -148.280542 -0.000000 0.135119 0.419555 -0.119499 -150.444806 956.219601 -0.000000 0.399980 0.246621 -0.367627
2.635000 -1.638851 -148.183284 -0.000000 0.138121 0.424911 -0.119632 -142.452231 958.304779 -0.000000 0.398240 0.241433 -0.367570
2.640000 -7.741276 -147.614075 -0.000000 0.141231 0.430190 -0.119714 -134.001452 959.986241 -0.000000 0.396321 0.236417 -0.367571
2.645000 -13.655408 -146.672857 -0.000000 0.144362 0.435366 -0.119931 -124.911552 961.098661 -0.000000 0.394212 0.231406 -0.367528
2.650000 -19.535416 -145.440545 -0.000000 0.147692 0.440561 -0.120105 -114.697844 961.498183 -0.000000 0.391913 0.226407 -0.367517
